<?xml version="1.0" encoding="iso-8859-1"?>
<!-- Generator: Adobe Illustrator 19.0.0, SVG Export Plug-In . SVG Version: 6.00 Build 0)  -->
<svg version="1.1" id="Capa_1" xmlns="http://www.w3.org/2000/svg" xmlns:xlink="http://www.w3.org/1999/xlink" x="0px" y="0px"
	 viewBox="0 0 512 512" style="enable-background:new 0 0 512 512;" xml:space="preserve">
<g>
	<path style="fill:#FFA800;" d="M503.467,221.867l-51.2,51.2L281.6,452.267h-64c-12.45,0.007-24.391-4.936-33.195-13.739
		s-13.746-20.745-13.739-33.195v-76.8c-0.007-12.45,4.935-24.391,13.739-33.195c8.803-8.803,20.745-13.746,33.195-13.739h64
		l106.667-106.667c-0.007,12.45,4.936,24.391,13.739,33.195s20.745,13.746,33.195,13.739H503.467z"/>
	<polygon style="fill:#FFFFFF;" points="503.467,8.533 281.6,230.4 8.533,230.4 230.4,8.533 	"/>
	<polygon style="fill:#FEDD0A;" points="503.467,8.533 281.6,230.4 42.667,230.4 264.533,8.533 	"/>
	<g>
		<polygon style="fill:#FFA800;" points="503.467,8.533 281.6,230.4 247.467,230.4 469.333,8.533 		"/>
		<path style="fill:#FFA800;" d="M170.667,328.533v76.8c-0.007,12.45,4.936,24.391,13.739,33.195s20.745,13.746,33.195,13.739h64
			v51.2H8.533v-51.2h64c12.45,0.007,24.391-4.936,33.195-13.739s13.746-20.745,13.739-33.195v-76.8
			c0.007-12.45-4.935-24.391-13.739-33.195c-8.803-8.803-20.745-13.746-33.195-13.739h-64v-51.2H281.6v51.2h-64
			c-12.45-0.007-24.391,4.935-33.195,13.739C175.602,304.142,170.66,316.084,170.667,328.533z"/>
	</g>
	<path style="fill:#FEDD0A;" d="M145.067,328.533v76.8c-0.007,12.45,4.936,24.391,13.739,33.195S179.55,452.274,192,452.267h64v51.2
		H8.533v-51.2h64c12.45,0.007,24.391-4.936,33.195-13.739s13.746-20.745,13.739-33.195v-76.8
		c0.007-12.45-4.935-24.391-13.739-33.195c-8.803-8.803-20.745-13.746-33.195-13.739h-64v-51.2H256v51.2h-64
		c-12.45-0.007-24.391,4.935-33.195,13.739C150.002,304.142,145.06,316.084,145.067,328.533z"/>
	<g>
		<path d="M281.6,238.933H8.533c-3.451,0-6.563-2.079-7.883-5.268s-0.59-6.859,1.85-9.299L147.567,79.3
			c3.341-3.281,8.701-3.256,12.012,0.054c3.311,3.311,3.335,8.671,0.054,12.012l-130.5,130.5h248.933l204.8-204.8H233.933
			l-23.1,23.1c-3.341,3.281-8.701,3.256-12.012-0.054c-3.311-3.311-3.335-8.671-0.054-12.012l25.6-25.6c1.6-1.6,3.77-2.5,6.033-2.5
			h273.067c3.451,0,6.563,2.079,7.883,5.268c1.321,3.189,0.59,6.859-1.85,9.299L287.633,236.433
			C286.033,238.033,283.863,238.933,281.6,238.933L281.6,238.933z"/>
		<path d="M180.05,67.412c-3.475,0.081-6.622-2.04-7.85-5.292c-0.437-1.026-0.67-2.127-0.683-3.242
			c0.033-2.259,0.917-4.422,2.475-6.059c2.043-2.014,4.956-2.878,7.767-2.304c0.536,0.091,1.055,0.264,1.538,0.513
			c0.543,0.186,1.059,0.444,1.533,0.767c0.449,0.315,0.877,0.657,1.283,1.025c1.557,1.637,2.439,3.8,2.471,6.059
			c-0.012,1.115-0.243,2.216-0.679,3.242c-0.414,1.044-1.022,1.999-1.792,2.817c-0.407,0.367-0.836,0.709-1.283,1.025
			c-0.475,0.323-0.99,0.581-1.533,0.767c-0.485,0.245-1.003,0.418-1.538,0.513C181.194,67.34,180.623,67.397,180.05,67.412
			L180.05,67.412z"/>
	</g>
	<polygon style="fill:#FFA800;" points="426.667,298.667 452.267,273.067 281.6,452.267 280.405,452.267 	"/>
	<path style="fill:#FEDD0A;" d="M477.867,247.467l-51.2,51.2l-146.261,153.6H217.6c-12.45,0.007-24.391-4.936-33.195-13.739
		s-13.746-20.745-13.739-33.195v-76.8c0.006-6.115,1.194-12.171,3.499-17.835c7.234-17.613,24.394-29.109,43.435-29.099h64
		l81.067-81.067c-0.007,12.45,4.936,24.391,13.739,33.195s20.745,13.746,33.195,13.739H477.867z"/>
	<path d="M281.6,460.8h-64c-30.619-0.035-55.431-24.848-55.467-55.467v-76.8c0.035-30.619,24.848-55.431,55.467-55.467h60.467
		L382.234,168.9c2.44-2.441,6.11-3.171,9.299-1.85s5.268,4.432,5.268,7.883c0.023,21.198,17.202,38.377,38.4,38.4h68.267
		c3.451,0,6.563,2.079,7.883,5.268c1.321,3.189,0.59,6.859-1.85,9.299l-51.2,51.2L287.779,458.15
		C286.169,459.841,283.935,460.799,281.6,460.8L281.6,460.8z M217.6,290.133c-21.198,0.023-38.377,17.202-38.4,38.4v76.8
		c0.023,21.198,17.202,38.377,38.4,38.4h60.342l168.142-176.55l36.783-36.783H435.2c-23.803-0.029-44.944-15.215-52.571-37.762
		l-94.996,94.996c-1.6,1.6-3.77,2.5-6.033,2.5H217.6z"/>
	<g>
		<polygon style="fill:#FFA800;" points="503.467,8.533 503.467,59.733 281.6,281.6 281.6,230.4 		"/>
		<polygon style="fill:#FFA800;" points="503.467,221.867 503.467,273.067 452.267,324.267 281.6,503.467 281.6,452.267 
			452.267,273.067 		"/>
	</g>
	<g>
		<polygon style="fill:#FEDD0A;" points="477.867,34.133 477.867,85.333 281.6,281.6 281.6,230.4 		"/>
		<polygon style="fill:#FEDD0A;" points="477.867,247.467 477.867,298.667 426.667,349.867 281.6,502.187 281.6,452.267 
			452.267,273.067 		"/>
	</g>
	<path d="M281.6,290.133c-4.713,0-8.533-3.821-8.533-8.533v-51.2c0.001-2.263,0.9-4.433,2.5-6.033L497.434,2.5
		c2.44-2.441,6.11-3.171,9.299-1.85S512,5.082,512,8.533v51.2c-0.001,2.263-0.9,4.433-2.5,6.033L287.633,287.633
		C286.034,289.234,283.863,290.134,281.6,290.133z M290.133,233.933V261l204.8-204.8V29.133L290.133,233.933z"/>
	<g>
		<rect x="8.533" y="230.4" style="fill:#FFFFFF;" width="25.6" height="51.2"/>
		<rect x="8.533" y="452.267" style="fill:#FFFFFF;" width="25.6" height="51.2"/>
	</g>
	<g>
		<path d="M281.6,512H8.533C3.821,512,0,508.18,0,503.467v-51.2c0-4.713,3.821-8.533,8.533-8.533h64
			c21.198-0.023,38.377-17.202,38.4-38.4v-76.8c-0.023-21.198-17.202-38.377-38.4-38.4h-64C3.821,290.133,0,286.313,0,281.6v-51.2
			c0-4.713,3.821-8.533,8.533-8.533H281.6c4.713,0,8.533,3.82,8.533,8.533v51.2c0,4.713-3.821,8.533-8.533,8.533h-64
			c-21.198,0.023-38.377,17.202-38.4,38.4v76.8c0.023,21.198,17.202,38.377,38.4,38.4h64c4.713,0,8.533,3.82,8.533,8.533v51.2
			C290.133,508.18,286.313,512,281.6,512z M17.067,494.933h256V460.8H217.6c-30.619-0.035-55.431-24.848-55.467-55.467v-76.8
			c0.035-30.619,24.848-55.431,55.467-55.467h55.467v-34.133h-256v34.133h55.467c30.619,0.035,55.431,24.848,55.467,55.467v76.8
			c-0.035,30.619-24.848,55.431-55.467,55.467H17.067V494.933z"/>
		<path d="M281.6,512c-2.264,0.002-4.436-0.896-6.036-2.497s-2.499-3.773-2.497-6.036v-51.2c-0.001-2.191,0.842-4.298,2.354-5.883
			l170.663-179.2l51.35-51.35c2.44-2.441,6.11-3.171,9.299-1.85s5.268,4.432,5.268,7.883v51.2c-0.001,2.263-0.9,4.433-2.5,6.033
			l-51.2,51.2L287.779,509.35C286.169,511.042,283.936,511.999,281.6,512z M290.133,455.679v26.454l155.95-163.75l48.85-48.85
			v-27.067L458.3,279.1L290.133,455.679z"/>
	</g>
	<path style="fill:#FFFFFF;" d="M119.467,341.333v64c0.007,12.45-4.936,24.391-13.739,33.195s-20.745,13.746-33.195,13.739h-64
		L119.467,341.333z"/>
	<path style="fill:#FEDD0A;" d="M119.467,375.467v29.867c0.007,12.45-4.936,24.391-13.739,33.195s-20.745,13.746-33.195,13.739
		H42.667L119.467,375.467z"/>
	<g>
		<path d="M72.533,460.8h-64c-3.451,0-6.563-2.079-7.883-5.268s-0.59-6.859,1.85-9.299L113.434,335.3
			c2.44-2.441,6.11-3.171,9.299-1.85c3.189,1.321,5.268,4.432,5.268,7.883v64C127.965,435.952,103.152,460.765,72.533,460.8z
			 M29.133,443.733h43.4c21.198-0.023,38.377-17.202,38.4-38.4v-43.4L29.133,443.733z"/>
		<path d="M213.333,417.704c-2.27,0.022-4.453-0.87-6.058-2.475c-1.605-1.605-2.497-3.788-2.475-6.058
			c0-4.713,3.82-8.533,8.533-8.533s8.533,3.821,8.533,8.533c0.022,2.27-0.87,4.453-2.475,6.058
			C217.787,416.834,215.603,417.726,213.333,417.704L213.333,417.704z"/>
		<path d="M238.933,390.908c-3.416,0.001-6.503-2.035-7.847-5.175c-1.344-3.14-0.686-6.779,1.672-9.25l8.533-8.942
			c2.105-2.206,5.227-3.122,8.19-2.402s5.317,2.966,6.175,5.892c0.858,2.926,0.09,6.087-2.015,8.294l-8.533,8.942
			C243.499,389.957,241.267,390.912,238.933,390.908L238.933,390.908z"/>
		<path d="M273.067,355.15c-3.416,0.001-6.503-2.035-7.847-5.175c-1.344-3.14-0.686-6.779,1.672-9.25l8.533-8.942
			c3.254-3.41,8.656-3.537,12.067-0.283c3.41,3.254,3.537,8.656,0.283,12.067l-8.533,8.942
			C277.633,354.198,275.4,355.153,273.067,355.15L273.067,355.15z"/>
		<path d="M307.2,319.392c-3.416,0.001-6.503-2.035-7.847-5.175c-1.344-3.14-0.686-6.779,1.672-9.25l8.533-8.942
			c3.254-3.41,8.656-3.537,12.067-0.283c3.41,3.254,3.537,8.656,0.283,12.067l-8.533,8.942
			C311.766,318.44,309.534,319.395,307.2,319.392z"/>
		<path d="M341.333,283.633c-3.416,0.001-6.503-2.035-7.847-5.175s-0.686-6.779,1.672-9.25l8.533-8.942
			c3.254-3.41,8.656-3.537,12.067-0.283s3.537,8.656,0.283,12.067l-8.533,8.942C345.899,282.682,343.667,283.637,341.333,283.633
			L341.333,283.633z"/>
		<path d="M375.467,247.892c-2.28-0.008-4.463-0.93-6.059-2.558c-1.618-1.562-2.515-3.726-2.475-5.975
			c-0.02-3.467,2.059-6.601,5.261-7.931c3.202-1.329,6.89-0.59,9.331,1.872c1.571,1.628,2.457,3.797,2.475,6.059
			c0.038,2.248-0.858,4.412-2.475,5.975C379.929,246.962,377.747,247.883,375.467,247.892L375.467,247.892z"/>
	</g>
</g>
<g>
</g>
<g>
</g>
<g>
</g>
<g>
</g>
<g>
</g>
<g>
</g>
<g>
</g>
<g>
</g>
<g>
</g>
<g>
</g>
<g>
</g>
<g>
</g>
<g>
</g>
<g>
</g>
<g>
</g>
</svg>
