<?xml version="1.0" encoding="iso-8859-1"?>
<!-- Generator: Adobe Illustrator 19.0.0, SVG Export Plug-In . SVG Version: 6.00 Build 0)  -->
<svg version="1.1" id="Capa_1" xmlns="http://www.w3.org/2000/svg" xmlns:xlink="http://www.w3.org/1999/xlink" x="0px" y="0px"
	 viewBox="0 0 512 512" style="enable-background:new 0 0 512 512;" xml:space="preserve">
<path style="fill:#37474F;" d="M17.067,469.334h477.867c4.713,0,8.534,3.821,8.534,8.534v25.6l0,0H8.534l0,0v-25.601
	C8.534,473.154,12.354,469.334,17.067,469.334z"/>
<path style="fill:#607D8B;" d="M17.067,469.334H460.8c4.713,0,8.534,3.821,8.534,8.534v25.6l0,0H8.534l0,0v-25.601
	C8.534,473.154,12.354,469.334,17.067,469.334z"/>
<path d="M503.467,512H8.534c-4.712,0.001-8.533-3.818-8.534-8.528c0-0.001,0-0.003,0-0.004v-25.601
	c0.011-9.421,7.645-17.056,17.066-17.066h477.867c9.421,0.011,17.056,7.645,17.066,17.066v25.6c0.001,4.712-3.818,8.533-8.529,8.534
	C503.47,512,503.469,512,503.467,512z M17.067,494.934h477.867v-17.067H17.067V494.934z"/>
<path style="fill:#607D8B;" d="M42.668,273.067h426.667c4.713,0,8.534,3.821,8.534,8.534v187.734l0,0H34.134l0,0V281.6
	C34.134,276.888,37.954,273.067,42.668,273.067z"/>
<path style="fill:#CFD8DC;" d="M42.668,273.067h392.533c4.713,0,8.534,3.821,8.534,8.534v187.734l0,0H34.134l0,0V281.6
	C34.134,276.888,37.954,273.067,42.668,273.067z"/>
<path d="M477.867,477.867H34.134c-4.712,0.001-8.533-3.818-8.534-8.529c0-0.001,0-0.003,0-0.004V281.6
	c0.011-9.421,7.645-17.056,17.066-17.066h426.667c9.421,0.011,17.056,7.645,17.066,17.066v187.734
	c0.001,4.712-3.818,8.533-8.529,8.534C477.87,477.867,477.869,477.867,477.867,477.867z M42.668,460.8h426.667V281.6H42.668V460.8z"
	/>
<g>
	<path style="fill:#1566C0;" d="M76.8,307.2h85.333c4.713,0,8.534,3.821,8.534,8.534v25.6c0,4.713-3.821,8.534-8.534,8.534H76.8
		c-4.713,0-8.534-3.821-8.534-8.534v-25.6C68.268,311.02,72.087,307.2,76.8,307.2z"/>
	<path style="fill:#1566C0;" d="M213.334,307.2h85.333c4.713,0,8.534,3.821,8.534,8.534v25.6c0,4.713-3.821,8.534-8.534,8.534
		h-85.333c-4.713,0-8.534-3.821-8.534-8.534v-25.6C204.8,311.02,208.621,307.2,213.334,307.2z"/>
	<path style="fill:#1566C0;" d="M76.8,384h85.333c4.713,0,8.534,3.821,8.534,8.534v25.6c0,4.713-3.821,8.534-8.534,8.534H76.8
		c-4.713,0-8.534-3.821-8.534-8.534v-25.6C68.268,387.821,72.087,384,76.8,384z"/>
	<path style="fill:#1566C0;" d="M349.867,307.2H435.2c4.713,0,8.534,3.821,8.534,8.534v25.6c0,4.713-3.821,8.534-8.534,8.534
		h-85.333c-4.713,0-8.534-3.821-8.534-8.534v-25.6C341.334,311.02,345.154,307.2,349.867,307.2z"/>
	<path style="fill:#1566C0;" d="M349.867,384H435.2c4.713,0,8.534,3.821,8.534,8.534v25.6c0,4.713-3.821,8.534-8.534,8.534h-85.333
		c-4.713,0-8.534-3.821-8.534-8.534v-25.6C341.334,387.821,345.154,384,349.867,384z"/>
</g>
<g>
	<path style="fill:#2296F3;" d="M76.8,307.2H128c4.713,0,8.534,3.821,8.534,8.534v25.6c0,4.713-3.821,8.534-8.534,8.534H76.8
		c-4.713,0-8.534-3.821-8.534-8.534v-25.6C68.268,311.02,72.087,307.2,76.8,307.2z"/>
	<path style="fill:#2296F3;" d="M213.334,307.2h51.2c4.713,0,8.534,3.821,8.534,8.534v25.6c0,4.713-3.821,8.534-8.534,8.534h-51.2
		c-4.713,0-8.534-3.821-8.534-8.534v-25.6C204.8,311.02,208.621,307.2,213.334,307.2z"/>
	<path style="fill:#2296F3;" d="M76.8,384H128c4.713,0,8.534,3.821,8.534,8.534v25.6c0,4.713-3.821,8.534-8.534,8.534H76.8
		c-4.713,0-8.534-3.821-8.534-8.534v-25.6C68.268,387.821,72.087,384,76.8,384z"/>
	<path style="fill:#2296F3;" d="M349.867,307.2h51.2c4.713,0,8.534,3.821,8.534,8.534v25.6c0,4.713-3.821,8.534-8.534,8.534h-51.2
		c-4.713,0-8.534-3.821-8.534-8.534v-25.6C341.334,311.02,345.154,307.2,349.867,307.2z"/>
	<path style="fill:#2296F3;" d="M349.867,384h51.2c4.713,0,8.534,3.821,8.534,8.534v25.6c0,4.713-3.821,8.534-8.534,8.534h-51.2
		c-4.713,0-8.534-3.821-8.534-8.534v-25.6C341.334,387.821,345.154,384,349.867,384z"/>
</g>
<path d="M162.134,358.4H76.8c-9.421-0.011-17.056-7.645-17.066-17.066v-25.6c0.011-9.421,7.645-17.056,17.066-17.066h85.333
	c9.421,0.011,17.056,7.645,17.066,17.066v25.6C179.19,350.755,171.555,358.389,162.134,358.4z M76.8,315.734v25.6h85.342
	l-0.008-25.6H76.8z"/>
<path d="M298.667,358.4h-85.333c-9.421-0.011-17.056-7.645-17.066-17.066v-25.6c0.011-9.421,7.645-17.056,17.066-17.066h85.333
	c9.421,0.011,17.056,7.645,17.066,17.066v25.6C315.723,350.755,308.088,358.389,298.667,358.4z M213.334,315.734v25.6h85.342
	l-0.008-25.6H213.334z"/>
<path style="fill:#C52828;" d="M213.334,384h85.333c4.713,0,8.534,3.821,8.534,8.534v76.799l0,0H204.8l0,0v-76.799
	C204.8,387.821,208.621,384,213.334,384z"/>
<path style="fill:#F44335;" d="M213.334,384h59.733c4.713,0,8.534,3.821,8.534,8.534v76.799l0,0h-76.8l0,0v-76.799
	C204.8,387.821,208.621,384,213.334,384z"/>
<path d="M307.201,477.867H204.8c-4.712,0.001-8.533-3.818-8.534-8.529c0-0.001,0-0.003,0-0.004v-76.799
	c0.011-9.421,7.645-17.056,17.066-17.066h85.333c9.421,0.011,17.056,7.645,17.066,17.066v76.799
	c0.001,4.712-3.818,8.533-8.529,8.534C307.204,477.867,307.202,477.867,307.201,477.867z M213.334,460.8h85.333v-68.267h-85.333
	V460.8z"/>
<path d="M162.134,435.201H76.8c-9.421-0.011-17.056-7.645-17.066-17.066v-25.6c0.011-9.421,7.645-17.056,17.066-17.066h85.333
	c9.421,0.011,17.056,7.645,17.066,17.066v25.6C179.19,427.554,171.555,435.189,162.134,435.201z M76.8,392.533v25.6h85.342
	l-0.008-25.6H76.8z"/>
<path d="M435.201,358.4h-85.333c-9.421-0.011-17.056-7.645-17.066-17.066v-25.6c0.011-9.421,7.645-17.056,17.066-17.066h85.333
	c9.421,0.011,17.056,7.645,17.066,17.066v25.6C452.257,350.755,444.622,358.389,435.201,358.4z M349.867,315.734v25.6h85.342
	l-0.008-25.6H349.867z"/>
<path d="M435.201,435.201h-85.333c-9.421-0.011-17.056-7.645-17.066-17.066v-25.6c0.011-9.421,7.645-17.056,17.066-17.066h85.333
	c9.421,0.011,17.056,7.645,17.066,17.066v25.6C452.257,427.554,444.622,435.189,435.201,435.201z M349.867,392.533v25.6h85.342
	l-0.008-25.6H349.867z"/>
<path d="M256.001,477.867c-4.712,0.001-8.533-3.818-8.534-8.529c0-0.001,0-0.003,0-0.004V384c0-4.713,3.821-8.534,8.534-8.534
	c4.713,0,8.534,3.821,8.534,8.534v85.333c0.001,4.712-3.818,8.533-8.528,8.534C256.003,477.867,256.002,477.867,256.001,477.867z"/>
<g>
	<path style="fill:#37474F;" d="M187.734,273.067H68.268L84.821,16.555c0.264-4.516,4.011-8.037,8.534-8.021h69.29
		c4.523-0.016,8.269,3.506,8.534,8.021L187.734,273.067z"/>
	<path style="fill:#37474F;" d="M443.734,273.067H324.267l16.555-256.512c0.264-4.516,4.011-8.037,8.534-8.021h69.29
		c4.523-0.016,8.269,3.506,8.534,8.021L443.734,273.067z"/>
</g>
<g>
	<path style="fill:#607D8B;" d="M153.601,273.067H68.268L84.821,16.555c0.264-4.516,4.011-8.037,8.534-8.021h35.157
		c4.523-0.016,8.269,3.506,8.534,8.021L153.601,273.067z"/>
	<path style="fill:#607D8B;" d="M409.6,273.067h-85.333l16.555-256.512c0.264-4.516,4.011-8.037,8.534-8.021h35.157
		c4.523-0.016,8.269,3.506,8.534,8.021L409.6,273.067z"/>
</g>
<g>
	<polygon style="fill:#C52828;" points="182.784,196.267 73.216,196.267 75.435,162.219 75.435,162.048 76.8,162.134 
		179.201,162.134 180.566,162.048 	"/>
	<polygon style="fill:#C52828;" points="438.785,196.267 329.217,196.267 331.436,162.219 331.436,162.048 332.801,162.134 
		435.201,162.134 436.566,162.048 	"/>
</g>
<g>
	<polygon style="fill:#F44335;" points="152.236,196.267 73.216,196.267 75.435,162.219 148.651,162.219 150.017,162.134 	"/>
	<polygon style="fill:#F44335;" points="408.235,196.267 329.217,196.267 331.436,162.219 404.651,162.219 406.016,162.134 	"/>
</g>
<path d="M182.784,204.8H73.217c-4.713,0-8.534-3.821-8.534-8.534c0-0.183,0.006-0.367,0.018-0.549l2.217-34.217
	c0.256-4.66,4.24-8.231,8.9-7.975c0.044,0.002,0.089,0.005,0.133,0.008l1.367,0.083l102.733-0.083
	c4.673-0.314,8.715,3.219,9.029,7.892c0.002,0.025,0.003,0.051,0.004,0.075l2.217,34.217c0.304,4.703-3.263,8.762-7.967,9.066
	C183.151,204.795,182.968,204.8,182.784,204.8z M82.317,187.734h91.367l-1.108-17.084l-89.15,0.017L82.317,187.734z"/>
<path d="M76.8,170.666c-0.175,0-0.35-0.004-0.516-0.017l-1.367-0.083c-4.703-0.284-8.286-4.326-8.002-9.029
	c0.001-0.013,0.001-0.025,0.002-0.038l9.392-145.495C76.856,6.996,84.333-0.023,93.359,0h69.283
	c9.052-0.016,16.538,7.046,17.049,16.084l9.392,145.416c0.305,4.702-3.26,8.76-7.962,9.064c-0.013,0.001-0.025,0.002-0.038,0.002
	l-1.367,0.083L76.8,170.666z M84.534,153.6h86.933l-8.809-136.496l-69.3-0.038L84.534,153.6z"/>
<path d="M187.734,281.6H68.268c-4.713,0-8.534-3.821-8.534-8.534c0-0.183,0.006-0.367,0.018-0.549l4.95-76.799
	c0.292-4.489,4.017-7.982,8.517-7.983h109.566c4.499,0.001,8.225,3.494,8.517,7.983l4.95,76.799
	c0.304,4.703-3.263,8.762-7.967,9.066C188.101,281.594,187.918,281.6,187.734,281.6z M77.367,264.533h101.266l-3.85-59.733H81.218
	L77.367,264.533z"/>
<path d="M173.401,59.733H82.601c-4.713,0-8.534-3.821-8.534-8.534s3.821-8.534,8.534-8.534H173.4c4.713,0,8.534,3.821,8.534,8.534
	S178.114,59.733,173.401,59.733z"/>
<rect x="182.784" y="187.738" width="4.95" height="17.066"/>
<rect x="68.268" y="187.738" width="4.95" height="17.066"/>
<path d="M438.784,204.8H329.217c-4.713,0-8.534-3.821-8.534-8.534c0-0.183,0.006-0.367,0.018-0.549l2.217-34.217
	c0.241-4.647,4.205-8.22,8.852-7.978c0.06,0.003,0.121,0.007,0.181,0.012l1.367,0.083l102.734-0.083
	c4.686-0.301,8.731,3.254,9.031,7.94c0.001,0.008,0.001,0.018,0.002,0.026l2.217,34.217c0.304,4.703-3.263,8.762-7.967,9.066
	C439.152,204.795,438.967,204.8,438.784,204.8z M338.318,187.734h91.367l-1.108-17.084l-89.15,0.017L338.318,187.734z"/>
<path d="M332.801,170.666c-0.175,0-0.35-0.004-0.516-0.017l-1.367-0.083c-4.703-0.284-8.286-4.326-8.002-9.029
	c0.001-0.013,0.001-0.025,0.002-0.038l9.392-145.495c0.547-9.008,8.026-16.027,17.05-16.004h69.283
	c9.052-0.016,16.538,7.046,17.049,16.084l9.392,145.416c0.305,4.702-3.26,8.76-7.962,9.064c-0.013,0.001-0.025,0.002-0.038,0.002
	l-1.367,0.083L332.801,170.666z M340.534,153.6h86.933l-8.809-136.496l-69.3-0.038L340.534,153.6z"/>
<path d="M443.734,281.6H324.267c-4.713,0-8.534-3.821-8.534-8.534c0-0.183,0.006-0.367,0.018-0.549l4.95-76.799
	c0.292-4.489,4.017-7.982,8.517-7.983h109.567c4.499,0.001,8.225,3.494,8.517,7.983l4.95,76.799
	c0.304,4.703-3.263,8.762-7.967,9.066C444.1,281.594,443.917,281.6,443.734,281.6z M333.368,264.533h101.266l-3.85-59.733h-93.566
	L333.368,264.533z"/>
<path d="M429.401,59.733h-90.799c-4.713,0-8.534-3.821-8.534-8.534s3.821-8.534,8.534-8.534h90.799c4.713,0,8.534,3.821,8.534,8.534
	S434.113,59.733,429.401,59.733z"/>
<rect x="438.783" y="187.738" width="4.95" height="17.066"/>
<rect x="324.27" y="187.738" width="4.95" height="17.066"/>
<g>
</g>
<g>
</g>
<g>
</g>
<g>
</g>
<g>
</g>
<g>
</g>
<g>
</g>
<g>
</g>
<g>
</g>
<g>
</g>
<g>
</g>
<g>
</g>
<g>
</g>
<g>
</g>
<g>
</g>
</svg>
